<svg width="878" height="714" viewBox="0 0 878 714" fill="none" xmlns="http://www.w3.org/2000/svg">
<path d="M878 647H0V714H878V647Z" fill="#B3956D"/>
<path d="M878 647H0V714H878V647Z" fill="url(#paint0_linear)"/>
<g filter="url(#filter0_d)">
<path d="M322.304 438.651V283.924L383.43 182.435V466.935" fill="#E7BFA6"/>
<path d="M217.515 373.765C217.515 373.765 60.3327 611.68 134.161 644.955H322.304L309.602 610.016C309.602 610.016 194.494 607.521 182.586 586.724C170.678 566.759 280.23 439.483 280.23 439.483" fill="#83BAD8"/>
<path d="M217.515 373.765C217.515 373.765 60.3327 611.68 134.161 644.955H322.304L309.602 610.016C309.602 610.016 194.494 607.521 182.586 586.724C170.678 566.759 280.23 439.483 280.23 439.483" fill="url(#paint1_linear)"/>
<path d="M475.517 384.58C475.517 384.58 597.77 610.848 523.942 644.955H335.799L348.501 610.016C348.501 610.016 469.96 610.016 481.868 589.22C494.57 568.423 377.873 439.483 377.873 439.483" fill="#83BAD8"/>
<path d="M475.517 384.58C475.517 384.58 597.77 610.848 523.942 644.955H335.799L348.501 610.016C348.501 610.016 469.96 610.016 481.868 589.22C494.57 568.423 377.873 439.483 377.873 439.483" fill="url(#paint2_linear)"/>
<path d="M442.175 248.153C442.175 299.729 402.483 341.322 353.264 341.322C304.045 341.322 264.353 299.729 264.353 248.153V188.258C264.353 136.683 304.045 95.0891 353.264 95.0891C402.483 95.0891 442.175 136.683 442.175 188.258V248.153Z" fill="#E7BFA6"/>
<path d="M225.454 647.45L217.515 366.279C217.515 366.279 249.269 353.8 322.304 352.137L354.852 400.385L381.843 352.137C416.772 353.8 475.517 372.933 475.517 372.933L450.908 647.45H225.454Z" fill="#83BAD8"/>
<path d="M225.454 647.45L217.515 366.279C217.515 366.279 249.269 353.8 322.304 352.137L354.852 400.385L381.843 352.137C416.772 353.8 475.517 372.933 475.517 372.933L450.908 647.45H225.454Z" fill="url(#paint3_linear)"/>
<path d="M277.848 243.994C277.848 243.994 247.682 229.02 239.743 194.913C228.629 147.497 241.331 100.912 265.146 105.071C277.054 126.7 283.405 131.691 283.405 131.691C283.405 131.691 273.085 221.533 277.848 243.994Z" fill="#0C0A0C"/>
<path d="M284.993 132.523C284.993 132.523 315.953 157.479 376.286 157.479C436.618 157.479 459.64 117.55 446.145 68.4693C427.092 86.7704 404.864 71.7967 369.935 59.3187C335.005 46.8407 299.282 46.8407 276.26 65.9737C254.033 85.1067 261.971 117.55 284.993 132.523Z" fill="#0C0A0C"/>
<path d="M289.756 135.019C289.756 135.019 267.528 176.612 274.673 206.56C257.208 183.267 252.445 149.161 252.445 149.161L265.94 105.903L289.756 135.019Z" fill="#0C0A0C"/>
<path d="M413.597 134.187C413.597 134.187 439 144.169 437.412 187.427C462.816 156.647 450.114 120.877 450.114 120.877L438.206 105.072L413.597 134.187Z" fill="#0C0A0C"/>
</g>
<g filter="url(#filter1_d)">
<path d="M841.483 273.109H445.351C439.794 273.109 431.855 288.915 431.855 294.738V589.22C431.855 595.043 439 596.706 445.351 596.706H841.483C847.04 596.706 853.391 595.043 853.391 589.22V293.906C853.391 288.083 847.04 273.109 841.483 273.109Z" fill="#395B74"/>
<path d="M841.483 273.109H445.351C439.794 273.109 431.855 288.915 431.855 294.738V589.22C431.855 595.043 439 596.706 445.351 596.706H841.483C847.04 596.706 853.391 595.043 853.391 589.22V293.906C853.391 288.083 847.04 273.109 841.483 273.109Z" fill="url(#paint4_linear)"/>
</g>
<path d="M600.946 503.537C596.976 547.626 593.007 592.547 589.038 636.636H697.002C693.033 592.547 689.063 547.626 685.094 503.537H600.946Z" fill="#919191"/>
<path d="M643.02 636.636H697.796C693.826 592.547 689.857 547.626 685.888 503.537H643.02V636.636Z" fill="#95989B"/>
<path d="M712.879 635.804H573.955C570.779 635.804 567.604 639.132 567.604 643.291V646.619H718.436V643.291C719.23 639.132 716.054 635.804 712.879 635.804Z" fill="#395B74"/>
<path d="M336.322 179.987C318.66 177.719 300.642 179.855 288.599 182.374C282.648 183.619 277.896 188.19 278.707 194.215C279.931 203.296 284.721 214.99 289.097 223.917C291.579 228.983 296.333 232.596 301.944 233.179C313.716 234.402 325.459 233.089 333.539 231.501C338.128 230.599 342.129 227.742 344.146 223.523C349.416 212.504 350.084 201.09 349.174 192.488C348.465 185.78 343.013 180.846 336.322 179.987Z" stroke="black" stroke-width="8"/>
<path d="M381.876 178.116C399.292 174.408 417.425 175.06 429.634 176.583C435.667 177.336 440.778 181.502 440.463 187.574C439.988 196.724 436.172 208.771 432.544 218.027C430.485 223.279 426.043 227.27 420.499 228.311C408.866 230.495 397.055 230.149 388.872 229.229C384.225 228.706 380.004 226.187 377.647 222.147C371.492 211.598 369.89 200.277 370.092 191.629C370.248 184.886 375.278 179.521 381.876 178.116Z" stroke="black" stroke-width="8"/>
<path d="M349.365 194.066C352.439 193.117 361.093 191.611 371.118 193.172" stroke="black" stroke-width="8"/>
<defs>
<filter id="filter0_d" x="54.4347" y="0.659698" width="493.205" height="656.791" filterUnits="userSpaceOnUse" color-interpolation-filters="sRGB">
<feFlood flood-opacity="0" result="BackgroundImageFix"/>
<feColorMatrix in="SourceAlpha" type="matrix" values="0 0 0 0 0 0 0 0 0 0 0 0 0 0 0 0 0 0 127 0"/>
<feOffset dx="-30" dy="-20"/>
<feGaussianBlur stdDeviation="15"/>
<feColorMatrix type="matrix" values="0 0 0 0 0 0 0 0 0 0 0 0 0 0 0 0 0 0 0.22 0"/>
<feBlend mode="normal" in2="BackgroundImageFix" result="effect1_dropShadow"/>
<feBlend mode="normal" in="SourceGraphic" in2="effect1_dropShadow" result="shape"/>
</filter>
<filter id="filter1_d" x="341.855" y="193.109" width="541.535" height="443.597" filterUnits="userSpaceOnUse" color-interpolation-filters="sRGB">
<feFlood flood-opacity="0" result="BackgroundImageFix"/>
<feColorMatrix in="SourceAlpha" type="matrix" values="0 0 0 0 0 0 0 0 0 0 0 0 0 0 0 0 0 0 127 0"/>
<feOffset dx="-30" dy="-20"/>
<feGaussianBlur stdDeviation="30"/>
<feColorMatrix type="matrix" values="0 0 0 0 0.972806 0 0 0 0 0.975 0 0 0 0 0.865313 0 0 0 0.2 0"/>
<feBlend mode="normal" in2="BackgroundImageFix" result="effect1_dropShadow"/>
<feBlend mode="normal" in="SourceGraphic" in2="effect1_dropShadow" result="shape"/>
</filter>
<linearGradient id="paint0_linear" x1="439" y1="647" x2="439" y2="714" gradientUnits="userSpaceOnUse">
<stop stop-color="#B3956D"/>
<stop offset="1" stop-color="#A88557"/>
</linearGradient>
<linearGradient id="paint1_linear" x1="218.369" y1="373.765" x2="218.369" y2="644.955" gradientUnits="userSpaceOnUse">
<stop stop-color="#83BAD8"/>
<stop offset="1" stop-color="#6CADD1"/>
</linearGradient>
<linearGradient id="paint2_linear" x1="441.72" y1="384.58" x2="441.72" y2="644.955" gradientUnits="userSpaceOnUse">
<stop stop-color="#83BAD8"/>
<stop offset="1" stop-color="#6CADD1"/>
</linearGradient>
<linearGradient id="paint3_linear" x1="346.516" y1="352.137" x2="346.516" y2="647.45" gradientUnits="userSpaceOnUse">
<stop stop-color="#83BAD8"/>
<stop offset="1" stop-color="#6CADD1"/>
</linearGradient>
<linearGradient id="paint4_linear" x1="642.623" y1="273.109" x2="642.623" y2="596.706" gradientUnits="userSpaceOnUse">
<stop offset="0.371527" stop-color="#395B74"/>
<stop offset="1" stop-color="#2A4355"/>
</linearGradient>
</defs>
</svg>
