<svg width="1920" height="584" viewBox="0 0 1920 584" fill="none" xmlns="http://www.w3.org/2000/svg">
<mask id="path-1-inside-1" fill="white">
<path d="M1925.72 261.239C1924.73 261.098 1923.59 260.574 1922.76 260.878C1917.55 262.79 1915.95 258.069 1916.21 255.622C1916.66 251.454 1915.76 247.355 1916.45 243.309C1916.69 241.898 1916.57 240.556 1915.39 240.476C1910.09 240.117 1904.9 237.656 1899.64 238.667C1893.65 239.818 1892.34 239.895 1888.71 236.139C1888.18 235.586 1887.17 235.526 1886.51 235.056C1882.62 232.285 1879.54 237.135 1875.77 236.106C1869.02 234.259 1866.55 240.849 1862.53 240.935C1857.21 241.049 1851.73 244.684 1846.55 240.333C1846.24 240.075 1845.57 240.107 1845.11 240.203C1837.53 241.778 1835.69 241.302 1829.65 236.554C1828.39 235.567 1825.94 235.56 1825.48 236.499C1822.3 242.941 1764.77 240.936 1745.09 245.845C1736.73 247.93 1741.19 241.833 1735.16 244.342C1733.98 244.832 1734.14 246.258 1734.5 246.973C1736.74 251.419 1735.27 256.136 1735.79 260.681C1736.56 267.304 1729.26 261.586 1728.94 266.427C1728.01 280.497 1728.36 356.738 1728.38 361.832C1728.41 368.92 1721.58 382.604 1719.85 376.512C1719.45 375.1 1719.99 373.428 1719.79 372.134C1719.17 367.921 1723.34 364.947 1720.9 359.566C1718.06 353.287 1718.89 345.305 1718.38 338.044C1718.25 336.239 1717.66 334.1 1719.73 332.544C1721.95 330.879 1718.57 330.407 1718.44 322.629C1718.42 321.622 1717.22 256.816 1716.41 223.777C1713.87 119.628 1728.27 136.196 1700.25 129.283C1698.48 128.845 1696.74 128.344 1697.09 125.732C1697.51 122.614 1694.44 122.612 1693.72 123.733C1691.31 127.488 1688.83 123.986 1688.58 123.267C1687.77 120.904 1685.91 121.893 1684.67 121.198C1675.77 116.177 1669.15 123.353 1648.72 123.215C1644.35 123.186 1640.78 123.093 1643.97 129.821C1636.92 127.635 1631.58 132.227 1625.36 131.593C1623.39 131.391 1620.94 133.328 1622.62 136.52C1624.17 139.477 1624.37 345.843 1624.01 352.284C1623.76 356.721 1625.12 360.423 1619.03 362.573C1610.68 365.52 1607.56 358.043 1610.03 355.59C1614.83 350.821 1608.82 347.228 1608.58 342.887C1608.58 342.887 1608.98 293.924 1608.98 293.757C1608.27 277.34 1602.08 277.478 1600.22 263.339C1599.42 257.255 1594.91 252.537 1591.64 247.391C1590.11 244.975 1587.55 247.128 1586.3 244.99C1583.03 239.365 1580.39 233.36 1579.54 227.027C1578.83 221.669 1576.04 216.59 1577.21 210.948C1577.72 208.51 1573.71 207.591 1573.37 210.995C1572.64 218.251 1574.76 223.655 1572.8 226.928C1554.31 257.834 1549.66 264.305 1546.71 275.687C1546.27 277.353 1548.06 279.233 1546.4 280.048C1541.88 282.257 1542.09 285.937 1543.03 339.843C1543.22 350.47 1543.09 350.063 1532.41 349.443C1523.52 348.926 1530.76 340.674 1527.88 325.134C1526.8 319.323 1529.49 314.262 1528.45 308.19C1526.12 294.554 1529.24 280.467 1528.08 266.519C1523.34 209.603 1530.5 199.209 1521.05 200.809C1515.56 201.738 1516.8 199.719 1516.9 174.605C1517.02 143.916 1517.92 146.63 1516.21 143.628C1511.74 147.7 1512.87 137.568 1512.87 200.813C1501.8 200.813 1499.69 201.823 1501.37 206.637C1501.86 208.067 1500.61 210.046 1498.05 209.935C1479.32 209.125 1478.6 209.851 1478.63 217.047C1479.33 350.641 1480.74 341.386 1475.97 341.047C1470.35 340.649 1464.65 341.497 1458.99 341.801C1445.78 342.511 1456.8 353.523 1448.42 352.853C1423.09 350.827 1418.91 350.899 1418.59 349.182C1418 345.934 1415.55 346.441 1413.6 346.614C1409.66 346.963 1405.07 345.331 1402.28 349.969C1401.91 350.584 1400.46 350.817 1399.53 350.781C1395.83 350.642 1392.24 351.444 1388.6 351.712C1383.7 352.073 1384.91 350.632 1385.22 387.611C1385.23 388.673 1385.4 389.744 1384.38 390.54C1382.27 387.032 1357.05 360.121 1354.27 357.199C1352.68 355.531 1350.72 350.963 1347.05 355.344C1346.92 355.498 1345.75 355.112 1345.4 354.696C1343.17 352.025 1341.28 351.676 1331.82 368.201C1327.9 375.04 1322.48 380.904 1319.17 388.128C1318.59 389.374 1318.58 391.547 1316.62 391.424C1313.4 391.223 1317.62 387.926 1313.54 387.062C1304.48 385.141 1303.42 387.068 1302.44 384.226C1301.01 380.075 1297.19 379.151 1293.59 378.03C1287.98 376.28 1283.65 381.417 1278.25 380.95C1275.97 380.754 1273.25 382.194 1273.53 377.493C1273.71 374.44 1274.27 371.11 1273.79 368.237C1270.6 348.79 1281.07 327.704 1271.18 328.799C1269.52 328.983 1257.24 334.221 1249.74 328.359C1246.07 325.492 1244.82 326.454 1243.15 329.631C1241.3 333.134 1238.16 333.844 1235.22 331.956C1231.09 329.297 1229.95 331.743 1231.88 334.947C1236.74 342.999 1228.48 342.829 1222.38 342.781C1211.24 342.692 1225.95 356.789 1212.15 354.619C1169.66 347.941 1164.95 353.419 1147.22 353.689C1139.77 353.803 1150.75 361.777 1141.86 369.286C1135.89 374.327 1138.49 383.286 1133.19 388.738C1132.76 389.181 1133.47 390.737 1133.68 391.927C1131.88 391.621 1129.88 393.208 1129.31 389.987C1127.86 381.835 1127.29 373.722 1128.99 365.561C1129.18 364.619 1129.85 363.913 1128.67 363.007C1117.32 354.252 1122.76 354.526 1107.12 354.988C1102.7 355.119 1100.39 354.6 1100.85 349.249C1101.95 336.319 1090.85 345.789 1080.33 340.843C1077.17 339.358 1074.39 342.389 1070.74 342.202C1062.95 341.804 1054.98 342.538 1047.09 342.782C1041.83 342.946 1039.8 344.811 1039.74 350.135C1039.44 374.342 1041.63 375.17 1034.91 375.098C1031.58 375.063 1032.47 384.643 1032.55 253.516C1032.55 243.462 1022.23 256.13 1023.58 241.663C1024.38 233.093 1021.32 232.237 1018.53 233.928C1014.83 236.178 1011.69 235.896 984.765 240.139C982.67 240.469 981.002 240.378 979.998 236.653C977.736 245.318 978.158 234.749 978.235 282.431C978.273 305.945 980.008 309.861 972.097 309.229C979.985 310.298 981.667 308.337 982.064 310.778C982.425 312.995 980.577 312.543 979.354 312.563C976.143 312.617 976.558 316.918 979.245 316.58C983.637 316.027 981.706 319.801 982.217 324.344C982.646 328.149 981.362 329.736 977.402 328.203C978.424 325.009 979.116 320.19 975.58 320.688C973.217 321.02 975.029 322.29 974.969 323.185C974.785 325.894 976.201 328.888 973.52 331.434C974.985 324.497 967.762 323.334 965.545 318.894C965.218 318.238 963.214 318.236 963.103 320.082C963.022 321.42 963.06 322.766 963.061 324.108C963.062 325.671 960.664 326.002 961.047 323.963C961.963 319.067 959.801 318.789 955.388 318.82C951.109 318.849 951.226 319.607 952.611 322.797C953.625 325.13 950.753 328.151 948.285 328.023C936.424 327.409 924.688 325.826 913.032 323.626C908.864 322.84 903.752 323.136 904.548 316.267C904.824 313.88 902.041 314.154 901.358 314.95C898.975 317.727 896.194 315.866 893.653 316.295C888.804 317.113 884.713 313.37 879.947 314.591C876.265 315.534 873.266 314.709 871.469 310.524C870.21 312.258 870.542 314.126 868.373 315.001C864.958 316.379 859.807 314.212 858.162 319.564C858.114 319.722 857.212 319.659 856.712 319.631C845.462 318.993 834.402 321.398 823.207 321.792C820.128 321.901 815.738 320.769 814.609 326.108C814.34 327.383 811.731 326.94 810.739 325.697C794.635 305.529 795.745 304.113 791.117 304.483C779.073 305.444 789.537 299.42 776.953 299.521C772.442 299.556 773.854 299.129 773.851 267.299C773.851 260.105 754.789 261.629 747.764 262.439C742.389 263.06 736.711 260.958 731.593 264.119C730.077 265.055 718.345 257.531 708.299 267.376C707.536 268.124 707.277 268.157 706.404 267.488C702.426 264.441 698.662 267.391 694.772 267.993C690.828 268.604 685.515 267.084 686.782 274.246C686.812 274.416 686.38 274.843 686.148 274.855C679.376 275.217 685.847 281.445 684.136 362.652C683.989 369.667 684.868 375.297 681.949 374.415C679.299 373.615 673.087 376.871 673.078 373.459C673.06 365.754 671.497 357.601 673.537 350.481C675.242 344.536 671.209 345.883 669.425 345.191C665.237 343.565 658.429 346.737 658.998 342.637C659.396 339.761 659.789 338.806 634.8 337.811C622.451 337.319 624.466 337.539 625.624 287.744C625.793 280.491 620.176 283.273 612.329 281.493C603.27 279.439 593.885 281.22 584.605 277.81C563.781 270.159 562.89 277.592 560.103 271.536C558.423 267.889 554.824 267.868 553.417 271.61C551.242 277.396 548.365 270.927 542.245 274.325C537.885 276.745 517.638 278.61 511.044 279.256C507.392 279.615 507.289 277.455 506.984 314.561C506.444 380.151 507.876 375.871 505.746 376.708C500.845 378.636 500.347 366.581 492.55 368.713C492.176 368.815 489.247 363.334 489.7 359.224C490.752 349.673 485.064 358.491 482.428 356.777C477.108 353.318 472.053 354.206 466.938 357.861C465.692 347.4 469.297 343.006 462.872 339.171C462.449 338.919 462.601 330.716 462.616 330.224C462.781 324.725 459.79 328.083 447.054 325.632C442.998 324.851 440.369 328.21 436.742 328.759C431.808 329.506 427.061 330.38 421.9 330.182C416.236 329.964 410.504 332.201 404.677 332.785C399.871 333.268 395.387 334.873 391.958 340.604C392.842 318.985 391.181 298.626 390.842 277.915C390.069 278.302 389.463 278.399 389.293 278.723C387.501 282.148 383.972 279.269 381.701 280.859C381.548 278.888 380.748 276.658 381.408 275.013C382.221 272.984 381.618 271.225 380.465 270.663C372.962 267.005 375.206 260.765 374.974 250.584C374.95 249.574 374.237 248.006 373.409 249.139C369.432 254.573 372.204 241.996 370.057 234.915C367.756 240.469 369.946 247.424 368.428 250.329C362.826 261.044 373.723 263.96 365.658 268.815C359.196 272.706 353.974 267.304 348.177 268.132C347.162 268.277 346.868 267.269 346.842 266.383C346.251 246.039 344.509 268.436 342.387 239.652C340.112 241.33 340.823 243.151 340.803 244.691C340.506 267.1 342.083 268.462 337.7 268.66C327.881 269.106 340.933 284.443 324.662 280.423C324.789 288.149 323.579 295.717 322.915 303.311C319.95 337.27 326.753 343.614 319.011 343.474C315.837 343.416 316.597 348.594 316.597 391.59C311.048 391.754 312.686 390.679 312.579 357.864C312.556 350.913 309.203 357.393 309.124 347.221C309.101 344.25 310.309 340.314 304.849 338.931C303.317 338.543 280.392 336.468 278.308 335.839C274.933 334.82 271.746 337.271 268.295 337.7C254.537 339.412 234.565 336.723 241.479 345.006C241.945 345.564 243.17 345.923 242.076 346.782C236.286 351.332 241.782 360.348 240.629 364.153C240.123 365.82 238.474 368.391 238.996 368.921C243.278 373.267 239.046 373.128 239.823 403.907C239.889 406.506 240.967 407.053 218.664 405.074C208.014 404.13 216.143 393.171 212.301 390.486C206.161 386.196 208.263 380.743 210.525 376.439C213.45 370.873 207.261 367.383 208.769 362.573C208.807 362.451 208.342 362.032 208.065 361.972C201.315 360.518 201.477 355.745 201.624 350.174C202.284 325.202 201.16 300.204 202.735 275.238C203.127 269.025 202.364 268.021 196.03 268.437C187.277 269.011 189.243 272.849 190.753 174.992C190.812 171.193 189.859 169.233 185.775 169.595C184.654 169.695 182.818 170.084 182.502 169.009C179.836 159.957 167.703 169.209 168.543 160.006C169.617 148.235 169.604 91.0706 169.611 90.064C169.673 81.9941 163.128 89.8668 163.543 82.9084C164.056 74.2989 162.265 65.9176 161.149 57.3096C160.052 58.49 161.488 61.1356 158.562 60.9203C156.014 60.7329 155.521 58.6933 155.604 57.129C155.889 51.7387 154.195 46.557 154.477 41.138C154.601 38.7802 155.818 12.3743 151.632 8.175C151.041 13.1474 151.137 18.0442 151.02 22.935C150.782 32.9131 146.802 42.4612 147.465 52.5329C147.743 56.7429 146.728 60.7812 146.397 64.905C146.334 65.6856 146.509 66.699 145.305 66.7927C140.981 67.1282 145.731 55.1733 140.593 43.3967C136.618 34.2847 140.988 6.86464 137.785 0C136.543 10.1428 135.143 20.6657 135.302 30.8939C135.454 40.6936 132.702 50.3755 133.31 60.2621C133.396 61.6329 133.387 62.9357 131.319 62.9206C127.501 62.8919 130.623 57.8333 128.564 54.8536C125.58 56.2418 126.136 58.2315 124.956 86.244C124.768 90.7041 119.419 84.5634 119.387 95.4656C119.177 165.768 121.05 163.446 114.61 163.934C106.934 164.516 109.144 158.478 108.324 258.558C108.251 267.471 108.341 267.599 99.1909 268.205C96.6232 268.375 95.6247 269.084 95.596 271.66C94.1931 396.094 96.1954 391.989 90.0661 391.141C80.5635 389.826 85.9716 398.534 80.5922 397.305C74.0041 395.8 64.0207 399.024 63.8091 396.17C63.6095 393.483 61.3473 394.275 59.9466 394.333C57.9285 394.417 58.0479 396.468 57.9149 397.824C57.3359 403.742 62.3873 399.591 61.5272 402.752C60.8159 405.366 54.4183 402.654 54.7554 411.192C54.9088 415.07 50.6655 413.328 48.6632 414.661C45.3193 416.886 47.2973 406.597 47.7478 324.091C47.7584 322.117 47.8922 320.363 44.8151 321.279C43.3918 321.703 41.6397 320.893 40.0411 320.918C39.3729 320.929 38.6148 322.161 38.0124 321C37.5173 320.047 37.961 319.162 38.8181 318.386C39.7372 317.553 42.1802 318.036 41.6239 316.22C39.8249 310.346 26.3374 315.703 27.9617 306.041C30.1514 293.02 27.5513 313.172 28.9814 251.283C29.0003 250.469 28.9609 249.22 28.4704 248.895C23.7591 245.776 24.32 240.105 22.1907 235.768C19.8309 230.961 13.1597 233.877 16.4651 228.267C17.0751 227.233 11.5459 221.203 5.3411 220.876C1.00776 220.648 -3.31802 220.274 -7.64683 219.963C-7.64683 613.042 -9.75039 583.496 -3.68991 583.495C2041.38 583.156 1925.81 585.851 1925.81 579.305C1925.7 473.283 1925.72 367.261 1925.72 261.239Z"/>
</mask>
<path d="M1925.72 261.239C1924.73 261.098 1923.59 260.574 1922.76 260.878C1917.55 262.79 1915.95 258.069 1916.21 255.622C1916.66 251.454 1915.76 247.355 1916.45 243.309C1916.69 241.898 1916.57 240.556 1915.39 240.476C1910.09 240.117 1904.9 237.656 1899.64 238.667C1893.65 239.818 1892.34 239.895 1888.71 236.139C1888.18 235.586 1887.17 235.526 1886.51 235.056C1882.62 232.285 1879.54 237.135 1875.77 236.106C1869.02 234.259 1866.55 240.849 1862.53 240.935C1857.21 241.049 1851.73 244.684 1846.55 240.333C1846.24 240.075 1845.57 240.107 1845.11 240.203C1837.53 241.778 1835.69 241.302 1829.65 236.554C1828.39 235.567 1825.94 235.56 1825.48 236.499C1822.3 242.941 1764.77 240.936 1745.09 245.845C1736.73 247.93 1741.19 241.833 1735.16 244.342C1733.98 244.832 1734.14 246.258 1734.5 246.973C1736.74 251.419 1735.27 256.136 1735.79 260.681C1736.56 267.304 1729.26 261.586 1728.94 266.427C1728.01 280.497 1728.36 356.738 1728.38 361.832C1728.41 368.92 1721.58 382.604 1719.85 376.512C1719.45 375.1 1719.99 373.428 1719.79 372.134C1719.17 367.921 1723.34 364.947 1720.9 359.566C1718.06 353.287 1718.89 345.305 1718.38 338.044C1718.25 336.239 1717.66 334.1 1719.73 332.544C1721.95 330.879 1718.57 330.407 1718.44 322.629C1718.42 321.622 1717.22 256.816 1716.41 223.777C1713.87 119.628 1728.27 136.196 1700.25 129.283C1698.48 128.845 1696.74 128.344 1697.09 125.732C1697.51 122.614 1694.44 122.612 1693.72 123.733C1691.31 127.488 1688.83 123.986 1688.58 123.267C1687.77 120.904 1685.91 121.893 1684.67 121.198C1675.77 116.177 1669.15 123.353 1648.72 123.215C1644.35 123.186 1640.78 123.093 1643.97 129.821C1636.92 127.635 1631.58 132.227 1625.36 131.593C1623.39 131.391 1620.94 133.328 1622.62 136.52C1624.17 139.477 1624.37 345.843 1624.01 352.284C1623.76 356.721 1625.12 360.423 1619.03 362.573C1610.68 365.52 1607.56 358.043 1610.03 355.59C1614.83 350.821 1608.82 347.228 1608.58 342.887C1608.58 342.887 1608.98 293.924 1608.98 293.757C1608.27 277.34 1602.08 277.478 1600.22 263.339C1599.42 257.255 1594.91 252.537 1591.64 247.391C1590.11 244.975 1587.55 247.128 1586.3 244.99C1583.03 239.365 1580.39 233.36 1579.54 227.027C1578.83 221.669 1576.04 216.59 1577.21 210.948C1577.72 208.51 1573.71 207.591 1573.37 210.995C1572.64 218.251 1574.76 223.655 1572.8 226.928C1554.31 257.834 1549.66 264.305 1546.71 275.687C1546.27 277.353 1548.06 279.233 1546.4 280.048C1541.88 282.257 1542.09 285.937 1543.03 339.843C1543.22 350.47 1543.09 350.063 1532.41 349.443C1523.52 348.926 1530.76 340.674 1527.88 325.134C1526.8 319.323 1529.49 314.262 1528.45 308.19C1526.12 294.554 1529.24 280.467 1528.08 266.519C1523.34 209.603 1530.5 199.209 1521.05 200.809C1515.56 201.738 1516.8 199.719 1516.9 174.605C1517.02 143.916 1517.92 146.63 1516.21 143.628C1511.74 147.7 1512.87 137.568 1512.87 200.813C1501.8 200.813 1499.69 201.823 1501.37 206.637C1501.86 208.067 1500.61 210.046 1498.05 209.935C1479.32 209.125 1478.6 209.851 1478.63 217.047C1479.33 350.641 1480.74 341.386 1475.97 341.047C1470.35 340.649 1464.65 341.497 1458.99 341.801C1445.78 342.511 1456.8 353.523 1448.42 352.853C1423.09 350.827 1418.91 350.899 1418.59 349.182C1418 345.934 1415.55 346.441 1413.6 346.614C1409.66 346.963 1405.07 345.331 1402.28 349.969C1401.91 350.584 1400.46 350.817 1399.53 350.781C1395.83 350.642 1392.24 351.444 1388.6 351.712C1383.7 352.073 1384.91 350.632 1385.22 387.611C1385.23 388.673 1385.4 389.744 1384.38 390.54C1382.27 387.032 1357.05 360.121 1354.27 357.199C1352.68 355.531 1350.72 350.963 1347.05 355.344C1346.92 355.498 1345.75 355.112 1345.4 354.696C1343.17 352.025 1341.28 351.676 1331.82 368.201C1327.9 375.04 1322.48 380.904 1319.17 388.128C1318.59 389.374 1318.58 391.547 1316.62 391.424C1313.4 391.223 1317.62 387.926 1313.54 387.062C1304.48 385.141 1303.42 387.068 1302.44 384.226C1301.01 380.075 1297.19 379.151 1293.59 378.03C1287.98 376.28 1283.65 381.417 1278.25 380.95C1275.97 380.754 1273.25 382.194 1273.53 377.493C1273.71 374.44 1274.27 371.11 1273.79 368.237C1270.6 348.79 1281.07 327.704 1271.18 328.799C1269.52 328.983 1257.24 334.221 1249.74 328.359C1246.07 325.492 1244.82 326.454 1243.15 329.631C1241.3 333.134 1238.16 333.844 1235.22 331.956C1231.09 329.297 1229.95 331.743 1231.88 334.947C1236.74 342.999 1228.48 342.829 1222.38 342.781C1211.24 342.692 1225.95 356.789 1212.15 354.619C1169.66 347.941 1164.95 353.419 1147.22 353.689C1139.77 353.803 1150.75 361.777 1141.86 369.286C1135.89 374.327 1138.49 383.286 1133.19 388.738C1132.76 389.181 1133.47 390.737 1133.68 391.927C1131.88 391.621 1129.88 393.208 1129.31 389.987C1127.86 381.835 1127.29 373.722 1128.99 365.561C1129.18 364.619 1129.85 363.913 1128.67 363.007C1117.32 354.252 1122.76 354.526 1107.12 354.988C1102.7 355.119 1100.39 354.6 1100.85 349.249C1101.95 336.319 1090.85 345.789 1080.33 340.843C1077.17 339.358 1074.39 342.389 1070.74 342.202C1062.95 341.804 1054.98 342.538 1047.09 342.782C1041.83 342.946 1039.8 344.811 1039.74 350.135C1039.44 374.342 1041.63 375.17 1034.91 375.098C1031.58 375.063 1032.47 384.643 1032.55 253.516C1032.55 243.462 1022.23 256.13 1023.58 241.663C1024.38 233.093 1021.32 232.237 1018.53 233.928C1014.83 236.178 1011.69 235.896 984.765 240.139C982.67 240.469 981.002 240.378 979.998 236.653C977.736 245.318 978.158 234.749 978.235 282.431C978.273 305.945 980.008 309.861 972.097 309.229C979.985 310.298 981.667 308.337 982.064 310.778C982.425 312.995 980.577 312.543 979.354 312.563C976.143 312.617 976.558 316.918 979.245 316.58C983.637 316.027 981.706 319.801 982.217 324.344C982.646 328.149 981.362 329.736 977.402 328.203C978.424 325.009 979.116 320.19 975.58 320.688C973.217 321.02 975.029 322.29 974.969 323.185C974.785 325.894 976.201 328.888 973.52 331.434C974.985 324.497 967.762 323.334 965.545 318.894C965.218 318.238 963.214 318.236 963.103 320.082C963.022 321.42 963.06 322.766 963.061 324.108C963.062 325.671 960.664 326.002 961.047 323.963C961.963 319.067 959.801 318.789 955.388 318.82C951.109 318.849 951.226 319.607 952.611 322.797C953.625 325.13 950.753 328.151 948.285 328.023C936.424 327.409 924.688 325.826 913.032 323.626C908.864 322.84 903.752 323.136 904.548 316.267C904.824 313.88 902.041 314.154 901.358 314.95C898.975 317.727 896.194 315.866 893.653 316.295C888.804 317.113 884.713 313.37 879.947 314.591C876.265 315.534 873.266 314.709 871.469 310.524C870.21 312.258 870.542 314.126 868.373 315.001C864.958 316.379 859.807 314.212 858.162 319.564C858.114 319.722 857.212 319.659 856.712 319.631C845.462 318.993 834.402 321.398 823.207 321.792C820.128 321.901 815.738 320.769 814.609 326.108C814.34 327.383 811.731 326.94 810.739 325.697C794.635 305.529 795.745 304.113 791.117 304.483C779.073 305.444 789.537 299.42 776.953 299.521C772.442 299.556 773.854 299.129 773.851 267.299C773.851 260.105 754.789 261.629 747.764 262.439C742.389 263.06 736.711 260.958 731.593 264.119C730.077 265.055 718.345 257.531 708.299 267.376C707.536 268.124 707.277 268.157 706.404 267.488C702.426 264.441 698.662 267.391 694.772 267.993C690.828 268.604 685.515 267.084 686.782 274.246C686.812 274.416 686.38 274.843 686.148 274.855C679.376 275.217 685.847 281.445 684.136 362.652C683.989 369.667 684.868 375.297 681.949 374.415C679.299 373.615 673.087 376.871 673.078 373.459C673.06 365.754 671.497 357.601 673.537 350.481C675.242 344.536 671.209 345.883 669.425 345.191C665.237 343.565 658.429 346.737 658.998 342.637C659.396 339.761 659.789 338.806 634.8 337.811C622.451 337.319 624.466 337.539 625.624 287.744C625.793 280.491 620.176 283.273 612.329 281.493C603.27 279.439 593.885 281.22 584.605 277.81C563.781 270.159 562.89 277.592 560.103 271.536C558.423 267.889 554.824 267.868 553.417 271.61C551.242 277.396 548.365 270.927 542.245 274.325C537.885 276.745 517.638 278.61 511.044 279.256C507.392 279.615 507.289 277.455 506.984 314.561C506.444 380.151 507.876 375.871 505.746 376.708C500.845 378.636 500.347 366.581 492.55 368.713C492.176 368.815 489.247 363.334 489.7 359.224C490.752 349.673 485.064 358.491 482.428 356.777C477.108 353.318 472.053 354.206 466.938 357.861C465.692 347.4 469.297 343.006 462.872 339.171C462.449 338.919 462.601 330.716 462.616 330.224C462.781 324.725 459.79 328.083 447.054 325.632C442.998 324.851 440.369 328.21 436.742 328.759C431.808 329.506 427.061 330.38 421.9 330.182C416.236 329.964 410.504 332.201 404.677 332.785C399.871 333.268 395.387 334.873 391.958 340.604C392.842 318.985 391.181 298.626 390.842 277.915C390.069 278.302 389.463 278.399 389.293 278.723C387.501 282.148 383.972 279.269 381.701 280.859C381.548 278.888 380.748 276.658 381.408 275.013C382.221 272.984 381.618 271.225 380.465 270.663C372.962 267.005 375.206 260.765 374.974 250.584C374.95 249.574 374.237 248.006 373.409 249.139C369.432 254.573 372.204 241.996 370.057 234.915C367.756 240.469 369.946 247.424 368.428 250.329C362.826 261.044 373.723 263.96 365.658 268.815C359.196 272.706 353.974 267.304 348.177 268.132C347.162 268.277 346.868 267.269 346.842 266.383C346.251 246.039 344.509 268.436 342.387 239.652C340.112 241.33 340.823 243.151 340.803 244.691C340.506 267.1 342.083 268.462 337.7 268.66C327.881 269.106 340.933 284.443 324.662 280.423C324.789 288.149 323.579 295.717 322.915 303.311C319.95 337.27 326.753 343.614 319.011 343.474C315.837 343.416 316.597 348.594 316.597 391.59C311.048 391.754 312.686 390.679 312.579 357.864C312.556 350.913 309.203 357.393 309.124 347.221C309.101 344.25 310.309 340.314 304.849 338.931C303.317 338.543 280.392 336.468 278.308 335.839C274.933 334.82 271.746 337.271 268.295 337.7C254.537 339.412 234.565 336.723 241.479 345.006C241.945 345.564 243.17 345.923 242.076 346.782C236.286 351.332 241.782 360.348 240.629 364.153C240.123 365.82 238.474 368.391 238.996 368.921C243.278 373.267 239.046 373.128 239.823 403.907C239.889 406.506 240.967 407.053 218.664 405.074C208.014 404.13 216.143 393.171 212.301 390.486C206.161 386.196 208.263 380.743 210.525 376.439C213.45 370.873 207.261 367.383 208.769 362.573C208.807 362.451 208.342 362.032 208.065 361.972C201.315 360.518 201.477 355.745 201.624 350.174C202.284 325.202 201.16 300.204 202.735 275.238C203.127 269.025 202.364 268.021 196.03 268.437C187.277 269.011 189.243 272.849 190.753 174.992C190.812 171.193 189.859 169.233 185.775 169.595C184.654 169.695 182.818 170.084 182.502 169.009C179.836 159.957 167.703 169.209 168.543 160.006C169.617 148.235 169.604 91.0706 169.611 90.064C169.673 81.9941 163.128 89.8668 163.543 82.9084C164.056 74.2989 162.265 65.9176 161.149 57.3096C160.052 58.49 161.488 61.1356 158.562 60.9203C156.014 60.7329 155.521 58.6933 155.604 57.129C155.889 51.7387 154.195 46.557 154.477 41.138C154.601 38.7802 155.818 12.3743 151.632 8.175C151.041 13.1474 151.137 18.0442 151.02 22.935C150.782 32.9131 146.802 42.4612 147.465 52.5329C147.743 56.7429 146.728 60.7812 146.397 64.905C146.334 65.6856 146.509 66.699 145.305 66.7927C140.981 67.1282 145.731 55.1733 140.593 43.3967C136.618 34.2847 140.988 6.86464 137.785 0C136.543 10.1428 135.143 20.6657 135.302 30.8939C135.454 40.6936 132.702 50.3755 133.31 60.2621C133.396 61.6329 133.387 62.9357 131.319 62.9206C127.501 62.8919 130.623 57.8333 128.564 54.8536C125.58 56.2418 126.136 58.2315 124.956 86.244C124.768 90.7041 119.419 84.5634 119.387 95.4656C119.177 165.768 121.05 163.446 114.61 163.934C106.934 164.516 109.144 158.478 108.324 258.558C108.251 267.471 108.341 267.599 99.1909 268.205C96.6232 268.375 95.6247 269.084 95.596 271.66C94.1931 396.094 96.1954 391.989 90.0661 391.141C80.5635 389.826 85.9716 398.534 80.5922 397.305C74.0041 395.8 64.0207 399.024 63.8091 396.17C63.6095 393.483 61.3473 394.275 59.9466 394.333C57.9285 394.417 58.0479 396.468 57.9149 397.824C57.3359 403.742 62.3873 399.591 61.5272 402.752C60.8159 405.366 54.4183 402.654 54.7554 411.192C54.9088 415.07 50.6655 413.328 48.6632 414.661C45.3193 416.886 47.2973 406.597 47.7478 324.091C47.7584 322.117 47.8922 320.363 44.8151 321.279C43.3918 321.703 41.6397 320.893 40.0411 320.918C39.3729 320.929 38.6148 322.161 38.0124 321C37.5173 320.047 37.961 319.162 38.8181 318.386C39.7372 317.553 42.1802 318.036 41.6239 316.22C39.8249 310.346 26.3374 315.703 27.9617 306.041C30.1514 293.02 27.5513 313.172 28.9814 251.283C29.0003 250.469 28.9609 249.22 28.4704 248.895C23.7591 245.776 24.32 240.105 22.1907 235.768C19.8309 230.961 13.1597 233.877 16.4651 228.267C17.0751 227.233 11.5459 221.203 5.3411 220.876C1.00776 220.648 -3.31802 220.274 -7.64683 219.963C-7.64683 613.042 -9.75039 583.496 -3.68991 583.495C2041.38 583.156 1925.81 585.851 1925.81 579.305C1925.7 473.283 1925.72 367.261 1925.72 261.239Z" fill="#FAFAFA" stroke="#FAFAFA" stroke-width="16" mask="url(#path-1-inside-1)"/>
</svg>
